<svg width="92" height="36" viewBox="0 0 92 36" fill="none" xmlns="http://www.w3.org/2000/svg">
<path d="M0.28 31.6L0.28 0.4L7.76 0.4V4.68H5.24L5.24 27.32H7.76L7.76 31.6H0.28ZM11.1763 30C11.1763 28.8 11.2696 27.72 11.4563 26.76C11.6429 25.8 11.9629 24.9067 12.4163 24.08C12.8963 23.2533 13.5363 22.48 14.3363 21.76C15.1629 21.0133 16.2029 20.2933 17.4563 19.6C18.5496 19.0133 19.5096 18.5067 20.3363 18.08C21.1629 17.6267 21.8563 17.2133 22.4163 16.84C23.0029 16.4667 23.4429 16.0933 23.7363 15.72C24.0296 15.32 24.1763 14.8667 24.1763 14.36C24.1763 13.8267 24.0296 13.3467 23.7363 12.92C23.4429 12.4667 23.0296 12.1067 22.4963 11.84C21.9629 11.5733 21.2963 11.44 20.4963 11.44C19.8563 11.44 19.2563 11.52 18.6963 11.68C18.1629 11.84 17.6563 12.0667 17.1763 12.36C16.7229 12.6533 16.2963 12.9867 15.8963 13.36C15.4963 13.7067 15.1363 14.08 14.8163 14.48L11.4163 10.56C11.7896 10.1867 12.2829 9.78667 12.8963 9.36C13.5363 8.90666 14.2829 8.49333 15.1363 8.12C16.0163 7.72 16.9763 7.4 18.0163 7.16C19.0829 6.89333 20.2163 6.76 21.4162 6.76C23.2296 6.76 24.7763 7.05333 26.0563 7.64C27.3363 8.2 28.3096 8.98667 28.9763 10C29.6696 11.0133 30.0163 12.2 30.0163 13.56C30.0163 14.4933 29.8429 15.32 29.4963 16.04C29.1496 16.76 28.7096 17.4 28.1763 17.96C27.6429 18.4933 27.0563 18.9733 26.4163 19.4C25.8029 19.8267 25.2029 20.2 24.6163 20.52C23.7896 20.9467 23.0429 21.3467 22.3763 21.72C21.7096 22.0667 21.1229 22.4267 20.6163 22.8C20.1096 23.1467 19.6563 23.5067 19.2563 23.88C18.8829 24.2533 18.5496 24.68 18.2563 25.16L30.4563 25.16V30L11.1763 30ZM44.7144 35.08V29.12H33.0344V24.36L46.4344 7.16L50.0744 7.16L50.0744 24.32H53.5944V29.12H50.0744V35.08H44.7144ZM38.3944 24.32H45.3144V15.28L38.3944 24.32ZM72.5859 30H69.9059V24.12C69.9059 23.2933 69.7593 22.6867 69.4659 22.3C69.1859 21.9 68.7926 21.7 68.2859 21.7C67.7659 21.7 67.2659 21.9067 66.7859 22.32C66.3193 22.72 65.9859 23.2467 65.7859 23.9V30L63.1059 30V24.12C63.1059 23.28 62.9593 22.6667 62.6659 22.28C62.3859 21.8933 61.9926 21.7 61.4859 21.7C60.9659 21.7 60.4659 21.9 59.9859 22.3C59.5193 22.7 59.1859 23.2267 58.9859 23.88V30H56.3059V19.52H58.7259V21.46C59.1259 20.78 59.6593 20.26 60.3259 19.9C60.9926 19.5267 61.7593 19.34 62.6259 19.34C63.4926 19.34 64.1659 19.5533 64.6459 19.98C65.1393 20.4067 65.4526 20.9333 65.5859 21.56C66.0126 20.84 66.5526 20.2933 67.2059 19.92C67.8726 19.5333 68.6193 19.34 69.4459 19.34C70.0993 19.34 70.6259 19.46 71.0259 19.7C71.4393 19.9267 71.7593 20.24 71.9859 20.64C72.2126 21.0267 72.3659 21.4667 72.4459 21.96C72.5393 22.4533 72.5859 22.9533 72.5859 23.46V30ZM74.2992 22.22C74.2992 21.5133 74.3792 20.9267 74.5392 20.46C74.7126 19.98 74.9859 19.5733 75.3592 19.24C75.7459 18.9067 76.2592 18.6067 76.8992 18.34C77.2992 18.1667 77.7059 18 78.1192 17.84C78.5459 17.6667 78.8992 17.4667 79.1792 17.24C79.4592 17.0133 79.5992 16.72 79.5992 16.36C79.5992 16 79.4392 15.7133 79.1192 15.5C78.8126 15.2733 78.3926 15.16 77.8592 15.16C77.4592 15.16 77.0992 15.2133 76.7792 15.32C76.4726 15.4267 76.1992 15.5667 75.9592 15.74C75.7326 15.9 75.5392 16.06 75.3792 16.22L74.3592 15.06C74.5059 14.8733 74.7459 14.6733 75.0792 14.46C75.4126 14.2467 75.8326 14.0667 76.3392 13.92C76.8459 13.76 77.4126 13.68 78.0392 13.68C79.1326 13.68 79.9592 13.92 80.5192 14.4C81.0792 14.8667 81.3592 15.4933 81.3592 16.28C81.3592 16.7333 81.2726 17.12 81.0992 17.44C80.9259 17.7467 80.6992 18.0067 80.4192 18.22C80.1526 18.42 79.8659 18.5867 79.5592 18.72C79.2526 18.8533 78.9726 18.9533 78.7192 19.02C78.2792 19.1533 77.9259 19.3133 77.6592 19.5C77.3926 19.6733 77.1992 19.86 77.0792 20.06C76.9592 20.2467 76.8992 20.4467 76.8992 20.66H81.2992V22.22L74.2992 22.22ZM83.8595 31.6V27.32H86.4195V4.68H83.8595V0.4L91.3795 0.4V31.6H83.8595Z" fill="#FFC800"/>
</svg>
