<svg width="92" height="36" viewBox="0 0 92 36" fill="none" xmlns="http://www.w3.org/2000/svg">
<path d="M0.28 31.6L0.28 0.4L7.76 0.4V4.68H5.24L5.24 27.32H7.76L7.76 31.6H0.28ZM22.1363 35.08V29.12L10.4563 29.12V24.36L23.8563 7.16L27.4963 7.16V24.32H31.0163V29.12H27.4963V35.08H22.1363ZM15.8163 24.32L22.7363 24.32V15.28L15.8163 24.32ZM34.0278 30C34.0278 28.8 34.1211 27.72 34.3078 26.76C34.4945 25.8 34.8145 24.9067 35.2678 24.08C35.7478 23.2533 36.3878 22.48 37.1878 21.76C38.0145 21.0133 39.0545 20.2933 40.3078 19.6C41.4011 19.0133 42.3611 18.5067 43.1878 18.08C44.0145 17.6267 44.7078 17.2133 45.2678 16.84C45.8545 16.4667 46.2945 16.0933 46.5878 15.72C46.8811 15.32 47.0278 14.8667 47.0278 14.36C47.0278 13.8267 46.8811 13.3467 46.5878 12.92C46.2945 12.4667 45.8811 12.1067 45.3478 11.84C44.8145 11.5733 44.1478 11.44 43.3478 11.44C42.7078 11.44 42.1078 11.52 41.5478 11.68C41.0145 11.84 40.5078 12.0667 40.0278 12.36C39.5745 12.6533 39.1478 12.9867 38.7478 13.36C38.3478 13.7067 37.9878 14.08 37.6678 14.48L34.2678 10.56C34.6411 10.1867 35.1345 9.78667 35.7478 9.36C36.3878 8.90666 37.1345 8.49333 37.9878 8.12C38.8678 7.72 39.8278 7.4 40.8678 7.16C41.9345 6.89333 43.0678 6.76 44.2678 6.76C46.0811 6.76 47.6278 7.05333 48.9078 7.64C50.1878 8.2 51.1611 8.98667 51.8278 10C52.5211 11.0133 52.8678 12.2 52.8678 13.56C52.8678 14.4933 52.6945 15.32 52.3478 16.04C52.0011 16.76 51.5611 17.4 51.0278 17.96C50.4945 18.4933 49.9078 18.9733 49.2678 19.4C48.6545 19.8267 48.0545 20.2 47.4678 20.52C46.6411 20.9467 45.8945 21.3467 45.2278 21.72C44.5611 22.0667 43.9745 22.4267 43.4678 22.8C42.9611 23.1467 42.5078 23.5067 42.1078 23.88C41.7345 24.2533 41.4011 24.68 41.1078 25.16H53.3078V30H34.0278ZM72.5859 30H69.9059V24.12C69.9059 23.2933 69.7593 22.6867 69.4659 22.3C69.1859 21.9 68.7926 21.7 68.2859 21.7C67.7659 21.7 67.2659 21.9067 66.7859 22.32C66.3193 22.72 65.9859 23.2467 65.7859 23.9V30L63.1059 30V24.12C63.1059 23.28 62.9593 22.6667 62.6659 22.28C62.3859 21.8933 61.9926 21.7 61.4859 21.7C60.9659 21.7 60.4659 21.9 59.9859 22.3C59.5193 22.7 59.1859 23.2267 58.9859 23.88V30H56.3059V19.52H58.7259V21.46C59.1259 20.78 59.6593 20.26 60.3259 19.9C60.9926 19.5267 61.7593 19.34 62.6259 19.34C63.4926 19.34 64.1659 19.5533 64.6459 19.98C65.1393 20.4067 65.4526 20.9333 65.5859 21.56C66.0126 20.84 66.5526 20.2933 67.2059 19.92C67.8726 19.5333 68.6193 19.34 69.4459 19.34C70.0993 19.34 70.6259 19.46 71.0259 19.7C71.4393 19.9267 71.7593 20.24 71.9859 20.64C72.2126 21.0267 72.3659 21.4667 72.4459 21.96C72.5393 22.4533 72.5859 22.9533 72.5859 23.46V30ZM74.2992 22.22C74.2992 21.5133 74.3792 20.9267 74.5392 20.46C74.7126 19.98 74.9859 19.5733 75.3592 19.24C75.7459 18.9067 76.2592 18.6067 76.8992 18.34C77.2992 18.1667 77.7059 18 78.1192 17.84C78.5459 17.6667 78.8992 17.4667 79.1792 17.24C79.4592 17.0133 79.5992 16.72 79.5992 16.36C79.5992 16 79.4392 15.7133 79.1192 15.5C78.8126 15.2733 78.3926 15.16 77.8592 15.16C77.4592 15.16 77.0992 15.2133 76.7792 15.32C76.4726 15.4267 76.1992 15.5667 75.9592 15.74C75.7326 15.9 75.5392 16.06 75.3792 16.22L74.3592 15.06C74.5059 14.8733 74.7459 14.6733 75.0792 14.46C75.4126 14.2467 75.8326 14.0667 76.3392 13.92C76.8459 13.76 77.4126 13.68 78.0392 13.68C79.1326 13.68 79.9592 13.92 80.5192 14.4C81.0792 14.8667 81.3592 15.4933 81.3592 16.28C81.3592 16.7333 81.2726 17.12 81.0992 17.44C80.9259 17.7467 80.6992 18.0067 80.4192 18.22C80.1526 18.42 79.8659 18.5867 79.5592 18.72C79.2526 18.8533 78.9726 18.9533 78.7192 19.02C78.2792 19.1533 77.9259 19.3133 77.6592 19.5C77.3926 19.6733 77.1992 19.86 77.0792 20.06C76.9592 20.2467 76.8992 20.4467 76.8992 20.66H81.2992V22.22L74.2992 22.22ZM83.8595 31.6V27.32H86.4195V4.68H83.8595V0.4L91.3795 0.4V31.6H83.8595Z" fill="#FFC800"/>
</svg>
