<svg width="99" height="50" viewBox="0 0 99 50" fill="none" xmlns="http://www.w3.org/2000/svg">
<path fill-rule="evenodd" clip-rule="evenodd" d="M33.2202 0H39.0827V24.0391H33.2202V12.6596L27.3578 24.0391H21.4954V12.6596L15.633 24.0391H9.11104L21.4954 0H27.3578V11.3794L33.2202 0ZM47.8764 38.5479L46.3009 41.6061H47.8764V38.5479ZM47.8764 47.1536H43.443L42.014 49.9274H38.1057V44.854L47.8764 25.8882H53.7388V49.9274H47.8764V47.1536ZM47.8764 0H42.014V24.0391H47.8764V21.2653H52.3098L53.7388 24.0391H60.2607L47.8764 0ZM49.4519 15.7178H47.8764V12.6596L49.4519 15.7178ZM64.4867 49.9274H70.3491C74.6661 49.9274 78.1656 46.6158 78.1656 42.5307V36.0586H67.4179V41.6061H72.3032V42.5307C72.3032 43.552 71.4284 44.3799 70.3491 44.3799H64.4867C63.4074 44.3799 62.5325 43.552 62.5325 42.5307V33.2849C62.5325 32.2636 63.4074 31.4357 64.4867 31.4357H70.3491C71.4284 31.4357 72.3032 32.2636 72.3032 33.2849H78.1656C78.1656 29.1998 74.6661 25.8882 70.3491 25.8882H64.4867C60.1696 25.8882 56.6701 29.1998 56.6701 33.2849V42.5307C56.6701 46.6158 60.1696 49.9274 64.4867 49.9274ZM13.6768 49.9274C17.995 49.9274 21.4955 46.6158 21.4955 42.5307C21.4955 38.4456 17.995 35.134 13.6768 35.134H7.8187C6.73912 35.134 5.864 34.3062 5.864 33.2849C5.864 32.2636 6.73912 31.4357 7.8187 31.4357H13.6768C14.7564 31.4357 15.6315 32.2636 15.6315 33.2849H21.4955C21.4955 29.1998 17.995 25.8882 13.6768 25.8882H7.8187C3.50042 25.8882 0 29.1998 0 33.2849C0 37.37 3.50042 40.6815 7.8187 40.6815H13.6768C14.7564 40.6815 15.6315 41.5094 15.6315 42.5307C15.6315 43.552 14.7564 44.3799 13.6768 44.3799H7.8187C6.73912 44.3799 5.864 43.552 5.864 42.5307H0C0 46.6158 3.50042 49.9274 7.8187 49.9274H13.6768ZM22.4726 31.4357V25.8882H42.014V31.4357H35.1745V49.9274H29.312V31.4357H22.4726ZM81.0969 25.9609H98.6842V31.5084H86.9594V35.2067H98.6842V40.7542H86.9594V44.4525H98.6842V50H81.0969V25.9609ZM73.2804 0H67.418V24.0391H73.2804V12.6596L79.1428 24.0391H85.0052V22.7589V0H79.1428V11.3794L73.2804 0ZM58.6243 0H64.4867V5.54743H58.6243V0ZM58.6243 8.3212H64.4867V24.039H63.1921L58.6243 15.1726V8.3212Z" fill="#FFC800"/>
</svg>
