<svg width="31" height="30" viewBox="0 0 31 30" fill="none" xmlns="http://www.w3.org/2000/svg">
<path d="M15.1424 0C9.34731 0 4.63275 4.67077 4.63275 10.4113C4.63275 15.9371 14.1683 28.8473 14.5744 29.394L14.9533 29.9049C14.9976 29.9649 15.0682 30 15.1424 30C15.2178 30 15.2879 29.9649 15.3327 29.9049L15.7114 29.394C16.1176 28.8473 25.653 15.9371 25.653 10.4113C25.653 4.67077 20.9376 0 15.1424 0ZM15.1424 6.68201C17.2188 6.68201 18.9072 8.3546 18.9072 10.4113C18.9072 12.467 17.2187 14.1407 15.1424 14.1407C13.0672 14.1407 11.3776 12.467 11.3776 10.4113C11.3776 8.3546 13.0672 6.68201 15.1424 6.68201Z" fill="#FFC800"/>
</svg>
