<svg width="119" height="60" viewBox="0 0 119 60" fill="none" xmlns="http://www.w3.org/2000/svg">
<path fill-rule="evenodd" clip-rule="evenodd" d="M39.8329 0H46.8623V28.8469H39.8329V15.1915L32.8035 28.8469H25.7741V15.1915L18.7448 28.8469H10.9246L25.7741 0H32.8035V13.6553L39.8329 0ZM57.4064 46.2575L55.5173 49.9273H57.4064V46.2575ZM57.4064 56.5843H52.0905L50.3771 59.9128H45.6908V53.8248L57.4064 31.0659H64.4358V59.9128H57.4064V56.5843ZM57.4064 0H50.3771V28.8469H57.4064V25.5184H62.7223L64.4358 28.8469H72.2559L57.4064 0ZM59.2955 18.8614H57.4064V15.1915L59.2955 18.8614ZM77.3231 59.9128H84.3524C89.5288 59.9128 93.7249 55.939 93.7249 51.0368V43.2703H80.8378V49.9273H86.6955V51.0368C86.6955 52.2624 85.6465 53.2558 84.3524 53.2558H77.3231C76.0289 53.2558 74.98 52.2624 74.98 51.0368V39.9419C74.98 38.7163 76.0289 37.7229 77.3231 37.7229H84.3524C85.6465 37.7229 86.6955 38.7163 86.6955 39.9419H93.7249C93.7249 35.0397 89.5288 31.0659 84.3524 31.0659H77.3231C72.1467 31.0659 67.9506 35.0397 67.9506 39.9419V51.0368C67.9506 55.939 72.1467 59.9128 77.3231 59.9128ZM16.3992 59.9128C21.577 59.9128 25.7742 55.939 25.7742 51.0368C25.7742 46.1347 21.577 42.1608 16.3992 42.1608H9.37505C8.08057 42.1608 7.03126 41.1674 7.03126 39.9419C7.03126 38.7163 8.08057 37.7229 9.37505 37.7229H16.3992C17.6937 37.7229 18.743 38.7163 18.743 39.9419H25.7742C25.7742 35.0397 21.577 31.0659 16.3992 31.0659H9.37505C4.1972 31.0659 0 35.0397 0 39.9419C0 44.844 4.1972 48.8178 9.37505 48.8178H16.3992C17.6937 48.8178 18.743 49.8113 18.743 51.0368C18.743 52.2624 17.6937 53.2558 16.3992 53.2558H9.37505C8.08057 53.2558 7.03126 52.2624 7.03126 51.0368H0C0 55.939 4.1972 59.9128 9.37505 59.9128H16.3992ZM26.9459 37.7229V31.0659H50.3771V37.7229H42.1761V59.9128H35.1468V37.7229H26.9459ZM97.2397 31.1531H118.328V37.81H104.269V42.248H118.328V48.905H104.269V53.343H118.328V60H97.2397V31.1531ZM87.8672 0H80.8379V28.8469H87.8672V15.1915L94.8966 28.8469H101.926V27.3107V0H94.8966V13.6553L87.8672 0ZM70.2937 0H77.3231V6.65692H70.2937V0ZM70.2937 9.98544H77.3231V28.8469H75.7707L70.2937 18.2071V9.98544Z" fill="#FFC800"/>
</svg>
