<svg width="30" height="30" viewBox="0 0 30 30" fill="none" xmlns="http://www.w3.org/2000/svg">
<path d="M22.6874 0H7.31263C6.83331 0 6.44343 0.389878 6.44343 0.869201V29.1308C6.44343 29.6101 6.83336 30 7.31263 30H22.6874C23.1667 30 23.5566 29.6101 23.5566 29.1308V0.869201C23.5566 0.389878 23.1662 0 22.6874 0ZM20.8715 1.45828C21.1233 1.45828 21.3279 1.66293 21.3279 1.91527C21.3279 2.16708 21.1233 2.37173 20.8715 2.37173C20.6192 2.37173 20.4145 2.16713 20.4145 1.91527C20.4145 1.66345 20.6196 1.45828 20.8715 1.45828ZM19.9451 1.70661C20.0604 1.70661 20.1538 1.80001 20.1538 1.91527C20.1538 2.03047 20.0604 2.12386 19.9451 2.12386C19.8294 2.12386 19.7365 2.03047 19.7365 1.91527C19.7365 1.80001 19.8299 1.70661 19.9451 1.70661ZM19.3933 1.70661C19.5085 1.70661 19.6019 1.80001 19.6019 1.91527C19.6019 2.03047 19.5085 2.12386 19.3933 2.12386C19.278 2.12386 19.1847 2.03047 19.1847 1.91527C19.1842 1.80001 19.2776 1.70661 19.3933 1.70661ZM13.2869 1.45828H16.7127V2.37168H13.2869V1.45828ZM16.7126 28.6629H13.2869V27.7494H16.7126V28.6629ZM21.7431 26.6582H8.25637V3.43811H21.7431V26.6582Z" fill="#FFC800"/>
</svg>
