<svg width="316" height="160" viewBox="0 0 316 160" fill="none" xmlns="http://www.w3.org/2000/svg">
<path fill-rule="evenodd" clip-rule="evenodd" d="M106.305 0H125.065V76.9251H106.305V40.5108L87.5449 76.9251H68.7852V40.5108L50.0255 76.9251H29.1553L68.7852 0H87.5449V36.4142L106.305 0ZM153.204 123.353L148.163 133.139H153.204V123.353ZM153.204 150.891H139.017L134.445 159.768H121.938V143.533L153.204 82.8424H171.964V159.768H153.204V150.891ZM153.204 0H134.445V76.9251H153.204V68.0491H167.391L171.964 76.9251H192.834L153.204 0ZM158.246 50.2971H153.204V40.5108L158.246 50.2971ZM206.357 159.768H225.117C238.932 159.768 250.13 149.171 250.13 136.098V115.388H215.737V133.139H231.37V136.098C231.37 139.366 228.571 142.016 225.117 142.016H206.357C202.904 142.016 200.104 139.366 200.104 136.098V106.512C200.104 103.243 202.904 100.594 206.357 100.594H225.117C228.571 100.594 231.37 103.243 231.37 106.512H250.13C250.13 93.4393 238.932 82.8424 225.117 82.8424H206.357C192.543 82.8424 181.344 93.4393 181.344 106.512V136.098C181.344 149.171 192.543 159.768 206.357 159.768ZM43.7657 159.768C57.5842 159.768 68.7855 149.171 68.7855 136.098C68.7855 123.026 57.5842 112.429 43.7657 112.429H25.0198C21.5652 112.429 18.7648 109.78 18.7648 106.512C18.7648 103.243 21.5652 100.594 25.0198 100.594H43.7657C47.2203 100.594 50.0207 103.243 50.0207 106.512H68.7855C68.7855 93.4393 57.5842 82.8424 43.7657 82.8424H25.0198C11.2013 82.8424 0 93.4393 0 106.512C0 119.584 11.2013 130.181 25.0198 130.181H43.7657C47.2203 130.181 50.0207 132.83 50.0207 136.098C50.0207 139.366 47.2203 142.016 43.7657 142.016H25.0198C21.5652 142.016 18.7648 139.366 18.7648 136.098H0C0 149.171 11.2013 159.768 25.0198 159.768H43.7657ZM71.9123 100.594V82.8424H134.445V100.594H112.558V159.768H93.7986V100.594H71.9123ZM259.51 83.0748H315.789V100.827H278.27V112.661H315.789V130.413H278.27V142.248H315.789V160H259.51V83.0748ZM234.497 0H215.738V76.9251H234.497V40.5108L253.257 76.9251H272.017V72.8284V0H253.257V36.4142L234.497 0ZM187.598 0H206.357V17.7518H187.598V0ZM187.598 26.6278H206.357V76.9249H202.215L187.598 48.5523V26.6278Z" fill="#FFC800"/>
</svg>
