<svg width="30" height="30" viewBox="0 0 30 30" fill="none" xmlns="http://www.w3.org/2000/svg">
<path d="M29.9912 0H0.00878906C0.003935 0 0 0.003935 0 0.00878906V29.9912C0 29.9961 0.003935 30 0.00878906 30H29.9912C29.9961 30 30 29.9961 30 29.9912V0.00878906C30 0.003935 29.9961 0 29.9912 0Z" fill="#FFC800"/>
<path d="M11.6602 23.6719C12.0703 23.6719 12.3047 23.4375 12.5977 23.2031L15.2344 20.6836L11.9531 18.6914" fill="#272727"/>
<path d="M11.9531 18.6914L19.8633 24.4921C20.6836 25.0195 21.3867 24.7265 21.6211 23.6718L24.8438 8.55464C25.1367 7.26558 24.3164 6.67964 23.4375 7.0898L4.6289 14.3554C3.39844 14.8242 3.39844 15.5859 4.39453 15.8789L9.25781 17.4023L20.3906 10.3125C20.918 10.0195 21.3867 10.1367 21.0352 10.5468" fill="#272727"/>
</svg>
